<svg id="Laag_1" data-name="Laag 1" xmlns="http://www.w3.org/2000/svg" viewBox="0 0 408.8 191.2"><defs><style>.cls-1{fill:#fff;}</style></defs><title>002-drone</title><path class="cls-1" d="M517.8,485.8H447V479a6,6,0,0,0-12,0v6.8H364.2a6,6,0,0,0,0,12H435V506a18.83,18.83,0,0,0-12.8,17.81v6.8H388.41a18.84,18.84,0,0,0-17.81-12.8H268.2a18.83,18.83,0,0,0-17.81,12.8H216.6v-6.8A18.84,18.84,0,0,0,203.8,506V497.8h70.8a6,6,0,0,0,0-12H203.8V479a6,6,0,0,0-12,0v6.8H121a6,6,0,0,0,0,12h70.8V506A18.83,18.83,0,0,0,179,523.8v25.6a18.8,18.8,0,0,0,37.6,0v-6.8h33.78a18.83,18.83,0,0,0,17.81,12.8H275v20.07a25.16,25.16,0,0,0-22.66,19L237.91,652.2H229.8a6,6,0,1,0,0,12h25.6a6,6,0,1,0,0-12h-5.11L264,597.4a13.17,13.17,0,0,1,12-10,18.83,18.83,0,0,0,17.8,12.77H345a18.83,18.83,0,0,0,17.8-12.77,13.17,13.17,0,0,1,12,10l13.7,54.8H383.4a6,6,0,1,0,0,12H409a6,6,0,1,0,0-12h-8.11l-14.43-57.71a25.16,25.16,0,0,0-22.66-19V555.4h6.8a18.83,18.83,0,0,0,17.81-12.8H422.2v6.8a18.8,18.8,0,1,0,37.6,0V523.8A18.83,18.83,0,0,0,447,506V497.8h70.8a6,6,0,0,0,0-12h0Zm-70,63.6" transform="translate(-115 -473)"/></svg>